<svg width="204" height="155" viewBox="0 0 204 155" fill="none" xmlns="http://www.w3.org/2000/svg">
<rect width="204" height="145" transform="translate(0 4)" fill="#1E1E1E"/>
<path d="M111.545 64.6364H88.8182C88.5152 62.303 87.8939 60.197 86.9545 58.3182C86.0152 56.4394 84.7727 54.8333 83.2273 53.5C81.6818 52.1667 79.8485 51.1515 77.7273 50.4545C75.6364 49.7273 73.3182 49.3636 70.7727 49.3636C66.2576 49.3636 62.3636 50.4697 59.0909 52.6818C55.8485 54.8939 53.3485 58.0909 51.5909 62.2727C49.8636 66.4545 49 71.5151 49 77.4545C49 83.6364 49.8788 88.8182 51.6364 93C53.4242 97.1515 55.9242 100.288 59.1364 102.409C62.3788 104.5 66.2121 105.545 70.6364 105.545C73.1212 105.545 75.3788 105.227 77.4091 104.591C79.4697 103.955 81.2727 103.03 82.8182 101.818C84.3939 100.576 85.6818 99.0758 86.6818 97.3182C87.7121 95.5303 88.4242 93.5152 88.8182 91.2727L111.545 91.4091C111.152 95.5303 109.955 99.5909 107.955 103.591C105.985 107.591 103.273 111.242 99.8182 114.545C96.3636 117.818 92.1515 120.424 87.1818 122.364C82.2424 124.303 76.5758 125.273 70.1818 125.273C61.7576 125.273 54.2121 123.424 47.5455 119.727C40.9091 116 35.6667 110.576 31.8182 103.455C27.9697 96.3333 26.0455 87.6667 26.0455 77.4545C26.0455 67.2121 28 58.5303 31.9091 51.4091C35.8182 44.2879 41.1061 38.8788 47.7727 35.1818C54.4394 31.4848 61.9091 29.6364 70.1818 29.6364C75.8182 29.6364 81.0303 30.4242 85.8182 32C90.6061 33.5455 94.8182 35.8182 98.4545 38.8182C102.091 41.7879 105.045 45.4394 107.318 49.7727C109.591 54.1061 111 59.0606 111.545 64.6364Z" fill="white"/>
<ellipse cx="112.5" cy="78" rx="29.5" ry="49" fill="#1E1E1E"/>
<path d="M154.136 61.3182C153.621 59.4091 152.864 57.7273 151.864 56.2727C150.864 54.7879 149.636 53.5303 148.182 52.5C146.727 51.4697 145.061 50.697 143.182 50.1818C141.303 49.6364 139.242 49.3636 137 49.3636C132.485 49.3636 128.576 50.4545 125.273 52.6364C122 54.8182 119.47 58 117.682 62.1818C115.894 66.3333 115 71.3788 115 77.3182C115 83.2879 115.864 88.3788 117.591 92.5909C119.318 96.803 121.818 100.015 125.091 102.227C128.364 104.439 132.333 105.545 137 105.545C141.121 105.545 144.606 104.879 147.455 103.545C150.333 102.182 152.515 100.258 154 97.7727C155.485 95.2879 156.227 92.3636 156.227 89L160.409 89.5H137.773V73.0909H177.909V85.4091C177.909 93.7424 176.136 100.879 172.591 106.818C169.076 112.758 164.227 117.318 158.045 120.5C151.894 123.682 144.818 125.273 136.818 125.273C127.939 125.273 120.136 123.348 113.409 119.5C106.682 115.652 101.439 110.167 97.6818 103.045C93.9242 95.8939 92.0455 87.4091 92.0455 77.5909C92.0455 69.9545 93.1818 63.1818 95.4545 57.2727C97.7273 51.3333 100.894 46.303 104.955 42.1818C109.045 38.0606 113.773 34.9394 119.136 32.8182C124.53 30.697 130.333 29.6364 136.545 29.6364C141.939 29.6364 146.955 30.4091 151.591 31.9545C156.258 33.5 160.379 35.6818 163.955 38.5C167.561 41.3182 170.485 44.6667 172.727 48.5455C174.97 52.4242 176.364 56.6818 176.909 61.3182H154.136Z" fill="white"/>
<ellipse cx="47" cy="40" rx="22" ry="21" fill="#1E1E1E"/>
<ellipse cx="171" cy="113.5" rx="14" ry="13.5" fill="#1E1E1E"/>
<circle cx="171" cy="113" r="7" fill="white"/>
</svg>
